<?xml version="1.0" standalone="no"?>
<!DOCTYPE svg PUBLIC "-//W3C//DTD SVG 20010904//EN"
 "http://www.w3.org/TR/2001/REC-SVG-20010904/DTD/svg10.dtd">
<svg version="1.0" xmlns="http://www.w3.org/2000/svg"
 width="1024.000000pt" height="1024.000000pt" viewBox="0 0 1024.000000 1024.000000"
 preserveAspectRatio="xMidYMid meet">

<g transform="translate(0.000000,1024.000000) scale(0.100000,-0.100000)"
fill="#000000" stroke="none">
<path d="M4603 9290 c-29 -13 -52 -34 -73 -66 l-30 -48 0 -598 c0 -653 -1
-639 58 -701 54 -57 51 -56 592 -57 476 -1 500 0 537 18 43 23 64 43 87 89 14
28 16 100 16 644 0 598 0 612 -21 648 -11 20 -36 48 -56 61 l-37 25 -515 2
c-492 3 -518 2 -558 -17z m1067 -65 c30 -27 50 -76 50 -124 l0 -40 -57 0 c-32
1 -290 0 -573 -1 l-515 -1 -3 48 c-2 33 3 57 17 79 37 60 31 60 569 59 476 0
491 -1 512 -20z m40 -259 c0 -21 -129 -26 -634 -26 l-461 1 0 -495 c0 -383 3
-498 13 -508 16 -16 15 -29 -1 -22 -8 3 -24 22 -35 43 -22 38 -22 45 -22 530
l0 491 570 0 c472 0 570 -2 570 -14z m-210 -236 l0 -30 -345 0 -345 0 0 30 0
30 345 0 345 0 0 -30z m0 -170 l0 -30 -345 0 -345 0 0 30 0 30 345 0 345 0 0
-30z m-2 -177 c-3 -28 -4 -28 -70 -28 -38 0 -192 2 -343 3 l-275 2 0 25 0 25
346 0 345 0 -3 -27z m2 -173 l0 -30 -340 0 c-187 0 -340 3 -340 8 0 4 -3 17
-6 30 l-6 22 346 0 346 0 0 -30z m0 -157 c0 -5 -3 -18 -6 -30 l-6 -23 -334 0
c-184 0 -334 3 -334 8 0 4 -3 17 -6 30 l-6 22 346 0 c190 0 346 -3 346 -7z"/>
<path d="M5426 9187 c-26 -19 -24 -67 4 -89 31 -25 47 -23 65 12 19 37 19 55
-1 74 -19 19 -44 20 -68 3z"/>
<path d="M5559 9174 c-23 -25 -20 -51 10 -78 15 -13 24 -15 47 -6 16 6 32 17
36 23 5 9 12 7 25 -6 17 -17 17 -18 -2 -11 -18 7 -19 6 -6 -10 12 -15 16 -15
29 -3 15 16 8 57 -10 57 -6 0 -5 -7 3 -17 11 -14 8 -14 -11 2 -14 11 -27 21
-29 22 -1 1 0 7 5 14 5 9 10 7 15 -7 6 -15 8 -13 8 11 1 29 0 30 -49 31 -39 1
-53 -3 -71 -22z"/>
<path d="M3476 8983 c-3 -10 -10 -44 -15 -77 -7 -35 -18 -64 -28 -72 -29 -21
-94 -39 -101 -28 -12 17 -99 84 -108 84 -5 0 -47 -38 -93 -84 -95 -95 -94 -79
-17 -170 l38 -46 -28 -67 c-15 -38 -32 -74 -37 -80 -6 -9 -37 -13 -88 -13
l-79 0 0 -130 0 -130 83 0 82 0 32 -71 33 -72 -50 -54 c-28 -30 -50 -59 -50
-65 0 -11 159 -178 169 -178 3 0 36 25 73 55 l67 54 50 -22 c48 -21 50 -24 56
-67 3 -25 9 -61 13 -80 l7 -35 127 -3 126 -3 7 58 c3 32 7 67 8 78 1 13 21 29
60 47 l58 28 62 -55 62 -55 89 89 89 90 -51 56 c-29 31 -52 62 -52 68 0 7 11
39 25 72 l24 60 80 3 81 3 2 119 c0 66 1 126 2 133 1 8 -23 13 -79 15 l-80 3
-30 72 c-16 40 -30 75 -30 80 0 4 22 35 49 68 l49 60 -79 80 c-43 43 -86 82
-96 85 -9 3 -26 -4 -38 -15 -12 -10 -34 -31 -50 -46 l-29 -27 -53 20 -53 20
-15 81 -14 81 -127 0 c-113 0 -128 -2 -133 -17z m194 -67 c0 -11 -15 -16 -52
-18 l-53 -3 -3 -45 c-4 -78 -9 -87 -46 -94 -19 -4 -67 -23 -106 -42 l-71 -36
-50 47 -50 47 -25 -23 c-31 -30 -31 -38 11 -92 19 -25 35 -50 35 -55 0 -5 -13
-39 -30 -75 -16 -36 -37 -92 -46 -125 l-17 -60 -78 -7 -79 -6 0 -40 c0 -21 -5
-39 -10 -39 -7 0 -10 22 -8 58 l3 57 73 5 73 5 23 66 c13 36 36 89 51 118 l29
52 -55 55 -54 55 45 39 c25 22 50 40 55 40 6 0 29 -18 50 -40 21 -22 45 -40
52 -40 6 0 29 11 49 25 20 14 55 30 78 35 22 6 47 13 54 15 8 3 12 26 12 70
l0 65 70 0 c54 0 70 -3 70 -14z m329 -135 l21 -29 -21 5 c-15 4 -32 -6 -63
-36 l-42 -41 -65 28 c-35 16 -81 35 -101 41 -21 7 -38 17 -38 23 0 17 79 1
139 -29 l53 -26 46 47 c26 25 48 46 49 46 1 0 11 -13 22 -29z m-285 -209 c62
-28 108 -73 141 -138 96 -190 -61 -421 -275 -401 -66 6 -105 24 -161 74 -65
59 -84 104 -84 203 0 73 4 92 27 136 69 131 218 185 352 126z m251 -339 c-24
-160 -155 -282 -310 -289 l-70 -4 67 19 c98 27 151 56 201 110 50 53 79 104
96 169 16 56 25 53 16 -5z m-770 -57 c12 -36 32 -85 44 -109 11 -24 21 -48 21
-53 0 -6 -20 -34 -46 -64 -29 -34 -43 -59 -39 -69 4 -11 -1 -9 -16 6 l-22 21
21 29 c11 15 34 41 51 57 l30 29 -35 69 c-19 37 -37 90 -41 116 -8 61 3 50 32
-32z m375 -421 c0 -33 -4 -45 -15 -45 -11 0 -15 11 -15 38 0 21 3 42 7 45 16
16 23 4 23 -38z"/>
<path d="M6555 8988 c-3 -7 -8 -40 -13 -73 l-7 -60 -57 -29 -58 -28 -56 51
c-30 28 -61 51 -68 51 -13 0 -176 -161 -176 -174 0 -4 25 -35 55 -69 31 -33
54 -63 53 -66 -2 -4 -14 -34 -28 -69 l-25 -62 -87 0 -88 0 0 -140 0 -140 88 0
87 0 28 -67 27 -66 -22 -26 c-12 -14 -38 -42 -56 -62 -28 -30 -32 -40 -24 -56
14 -26 149 -153 163 -153 5 0 38 23 72 50 34 28 66 50 72 50 5 -1 32 -11 58
-23 l48 -23 2 -76 c1 -42 6 -80 10 -85 4 -4 66 -9 137 -11 l128 -4 6 43 c3 24
7 64 9 88 1 27 8 47 17 51 8 4 30 14 48 23 19 9 39 17 46 17 6 0 36 -25 66
-55 30 -30 58 -55 63 -55 5 0 47 39 93 86 l84 86 -55 64 c-56 67 -62 78 -45
89 5 3 17 30 26 60 l18 55 88 0 88 0 0 140 0 139 -86 3 -86 3 -30 67 -30 67
55 62 56 63 -19 23 c-27 35 -156 153 -166 153 -5 -1 -33 -23 -63 -49 l-54 -48
-41 15 c-61 23 -64 27 -77 108 l-13 74 -128 0 c-94 0 -130 -3 -133 -12z m195
-73 c0 -11 -12 -15 -50 -15 l-50 0 0 -52 c0 -65 -6 -74 -50 -83 -19 -4 -67
-22 -107 -41 -40 -19 -76 -34 -80 -34 -4 0 -31 24 -60 52 l-53 52 -31 -31 -31
-30 51 -57 c28 -31 51 -60 51 -65 0 -5 -15 -49 -33 -98 -19 -48 -37 -100 -40
-114 -8 -30 -36 -39 -118 -39 l-49 0 0 -55 c0 -42 -3 -55 -15 -55 -12 0 -15
14 -15 70 l0 70 73 0 c39 0 77 4 83 8 6 4 21 39 32 78 12 39 31 82 42 96 11
15 20 29 20 33 0 4 -27 35 -60 70 l-61 62 51 43 c44 37 53 41 63 28 7 -9 30
-32 53 -51 l41 -37 69 35 c38 19 84 38 102 41 l32 6 0 64 0 64 70 0 c56 0 70
-3 70 -15z m341 -131 l24 -26 -23 6 c-18 6 -33 -2 -73 -38 l-51 -46 -41 24
c-23 13 -66 32 -94 42 -29 10 -53 22 -53 26 0 18 72 6 122 -21 l55 -28 44 42
c24 23 49 43 55 44 6 0 21 -11 35 -25z m-327 -196 c26 -8 62 -33 98 -68 46
-44 60 -66 73 -113 49 -171 -77 -341 -255 -341 -148 -1 -263 117 -261 266 2
183 170 308 345 256z m266 -334 c-27 -167 -164 -285 -328 -283 -106 1 -121 15
-22 21 96 5 161 32 230 94 44 40 97 138 107 197 3 21 9 35 13 30 5 -4 4 -31 0
-59z m-728 -124 c51 -111 51 -103 6 -151 -23 -24 -46 -56 -53 -72 l-11 -28
-19 22 c-19 21 -19 21 38 76 l58 56 -31 63 c-19 36 -34 83 -36 111 -4 45 -3
46 7 18 6 -16 25 -59 41 -95z m344 -406 c-3 -8 -10 -14 -16 -14 -14 0 -13 63
2 97 12 28 13 27 16 -21 2 -27 1 -55 -2 -62z"/>
<path d="M4240 8960 c-26 -26 -27 -91 -2 -113 50 -45 132 -9 132 58 0 64 -85
100 -130 55z"/>
<path d="M5943 8965 c-26 -18 -38 -67 -23 -94 6 -12 22 -28 35 -37 21 -14 30
-14 56 -4 37 16 62 60 53 95 -12 50 -77 71 -121 40z"/>
<path d="M2273 8644 c-6 -16 2 -25 245 -256 52 -50 65 -58 77 -48 8 7 15 19
15 27 0 7 -47 60 -105 116 -58 56 -105 104 -105 107 0 3 42 3 94 2 88 -4 95
-2 106 18 23 44 2 50 -167 50 -133 0 -154 -2 -160 -16z"/>
<path d="M7648 8650 c-27 -17 -22 -30 37 -96 l55 -62 -55 -61 c-30 -34 -55
-66 -55 -70 0 -18 29 -33 45 -23 19 10 317 303 313 307 -2 1 -75 5 -163 9
-107 4 -166 3 -177 -4z m172 -80 c-11 -11 -22 -20 -25 -20 -3 0 -14 9 -25 20
l-20 20 45 0 45 0 -20 -20z"/>
<path d="M1515 8146 c-16 -8 -44 -29 -62 -47 -64 -68 -63 -56 -63 -616 0 -569
-1 -555 73 -620 52 -46 91 -53 282 -53 l170 0 87 -87 88 -88 82 88 83 87 185
2 c211 3 230 9 285 87 l30 43 3 525 3 524 -25 54 c-17 38 -37 62 -67 82 l-43
28 -540 2 c-438 2 -547 0 -571 -11z m1114 -81 c20 -20 20 -20 -510 -17 -519 2
-532 2 -564 -18 -60 -37 -60 -36 -60 -575 0 -395 3 -495 14 -515 13 -25 13
-25 -15 3 l-29 27 -3 498 c-3 563 -3 565 66 602 35 19 59 19 559 17 508 -2
523 -3 542 -22z m-919 -60 c17 -20 3 -36 -25 -29 -27 7 -80 -18 -95 -45 -5
-11 -10 -38 -10 -60 0 -35 -3 -41 -21 -41 -21 0 -22 3 -16 66 4 37 12 73 19
82 32 37 125 55 148 27z m488 -139 c41 -22 210 -199 216 -226 5 -25 17 -262
17 -333 -1 -41 -13 -70 -45 -105 -46 -52 -66 -55 -276 -53 -186 2 -196 3 -225
25 -41 32 -167 162 -182 189 -8 14 -12 59 -12 122 1 55 -4 122 -11 148 -24 91
3 178 67 222 37 25 41 25 231 25 147 0 199 -3 220 -14z m-618 -91 c0 -28 -24
-34 -34 -9 -10 26 -7 34 14 34 15 0 20 -7 20 -25z"/>
<path d="M1833 7780 c-68 -50 -83 -94 -83 -246 0 -71 4 -135 9 -143 5 -7 41
-49 81 -92 l73 -79 147 0 c146 0 147 0 191 30 25 16 61 51 79 77 34 46 35 52
38 154 5 129 1 137 -106 248 l-79 81 -155 0 -154 0 -41 -30z m101 -146 c32
-31 10 -66 -34 -54 -25 6 -36 29 -26 56 7 19 41 18 60 -2z m189 -19 c34 -24
37 -29 37 -75 0 -46 2 -49 30 -55 25 -6 30 -11 30 -36 0 -41 -27 -50 -54 -18
l-21 25 -34 -23 c-39 -27 -69 -29 -97 -8 -22 17 -54 20 -54 5 0 -5 -11 -10
-25 -10 -18 0 -26 7 -31 24 -8 32 3 49 27 43 15 -4 17 0 13 23 -4 16 1 43 11
64 32 67 103 84 168 41z"/>
<path d="M2030 7556 c-20 -26 -8 -61 22 -64 35 -4 60 37 38 63 -16 19 -44 19
-60 1z"/>
<path d="M7620 8138 c-31 -16 -54 -38 -75 -72 l-30 -49 -3 -509 c-2 -342 1
-522 8 -549 6 -22 27 -58 46 -79 54 -60 98 -70 298 -70 l171 0 87 -87 86 -86
81 85 80 85 193 5 c137 4 203 10 228 20 41 18 96 77 107 116 5 15 8 261 8 547
l0 520 -23 42 c-12 24 -41 55 -64 70 l-42 28 -555 3 -556 2 -45 -22z m1164
-77 c32 -30 34 -48 4 -27 -20 14 -88 16 -548 16 -400 0 -531 -3 -550 -13 -13
-7 -35 -28 -47 -46 l-23 -34 2 -501 c2 -285 7 -510 12 -521 9 -18 8 -19 -9 -5
-43 36 -45 55 -45 552 0 278 4 487 10 507 11 38 44 79 75 92 11 4 262 7 557 6
l536 -2 26 -24z m-412 -194 c91 -44 213 -185 191 -221 -4 -5 -6 -55 -5 -110 2
-112 -7 -177 -25 -183 -8 -3 -8 10 3 49 16 62 18 118 4 118 -5 0 -11 -19 -12
-42 l-1 -43 -7 45 c-7 44 -7 44 -10 10 -1 -19 -6 -48 -10 -65 -7 -22 -8 -13
-7 38 1 37 -1 67 -5 67 -3 0 -9 13 -13 29 -10 46 -64 120 -106 147 -22 13 -64
31 -95 39 -200 52 -386 -155 -314 -349 29 -75 86 -137 152 -166 41 -18 66 -21
123 -18 86 4 151 39 200 105 16 23 34 42 39 42 5 1 6 -2 3 -6 -4 -3 -2 -12 4
-20 8 -8 8 -13 1 -13 -6 0 -12 5 -14 12 -3 8 -7 6 -11 -5 -3 -9 -3 -16 1 -16
32 5 28 -7 -14 -46 -26 -25 -50 -45 -52 -45 -2 0 -18 -11 -35 -24 -99 -75
-264 -73 -400 4 -66 37 -77 49 -116 126 -41 80 -52 142 -40 219 26 159 129
282 283 337 78 28 214 21 288 -15z m-85 -198 c67 -25 123 -109 123 -184 0
-141 -139 -243 -261 -190 -164 70 -172 292 -15 369 36 18 112 21 153 5z m305
-464 c9 -19 7 -29 -6 -50 -38 -58 -96 -54 -96 6 0 22 8 34 33 49 42 26 55 25
69 -5z"/>
<path d="M4875 7759 c-706 -66 -1372 -358 -1870 -822 -408 -379 -664 -766
-841 -1272 l-42 -120 -498 -5 c-482 -5 -500 -6 -539 -26 -22 -11 -53 -40 -70
-63 l-30 -43 -3 -542 -2 -543 28 -54 c21 -40 40 -61 72 -79 l45 -25 479 0 480
0 17 -80 c10 -44 18 -88 18 -97 1 -17 -28 -18 -483 -18 l-484 0 -53 -28 c-39
-20 -62 -41 -84 -77 l-30 -48 -3 -344 c-3 -318 -1 -347 16 -386 19 -43 68
-107 81 -107 4 0 1 30 -7 68 -19 84 -29 679 -12 741 6 24 25 52 50 75 l40 36
510 0 510 0 38 -34 c37 -34 37 -35 41 -126 l3 -91 -27 25 c-30 28 -82 46 -130
46 -25 0 -33 6 -42 30 -6 16 -26 38 -44 49 -33 20 -49 21 -382 21 -327 0 -350
-1 -387 -20 -45 -23 -74 -61 -84 -110 -4 -19 -4 -158 0 -309 l7 -274 30 -34
c54 -62 65 -64 299 -63 l211 2 61 -54 c33 -29 111 -101 174 -160 62 -60 117
-108 122 -108 10 0 14 67 15 230 l0 85 56 6 c99 11 152 63 172 169 l11 56 32
-67 c45 -94 173 -304 251 -413 159 -220 364 -438 595 -631 l96 -80 3 -148 c2
-81 2 -147 -1 -147 -3 0 -18 20 -33 45 -40 63 -130 140 -194 167 -40 16 -52
26 -48 37 4 9 9 46 12 82 l6 66 -36 27 c-86 66 -228 91 -351 62 -169 -40 -303
-160 -368 -331 -22 -58 -23 -68 -21 -390 l2 -330 31 -6 c17 -4 33 -2 36 2 8
14 8 242 -1 419 -8 177 0 242 44 336 54 115 155 200 273 230 85 22 208 15 265
-14 54 -28 61 -41 20 -38 -17 2 -45 -1 -62 -5 l-30 -7 30 -1 c24 -1 27 -3 15
-12 -13 -9 -13 -10 0 -6 8 2 14 9 13 14 -1 5 4 10 11 10 9 0 -2 -32 -33 -91
-25 -50 -48 -93 -52 -96 -25 -23 -92 -193 -104 -265 -12 -73 -15 -78 -33 -63
-15 12 -16 11 -3 -5 12 -15 11 -20 -4 -37 -10 -11 -22 -17 -27 -14 -4 3 -7 2
-6 -3 2 -4 -2 -10 -7 -13 -6 -2 -21 -17 -33 -32 -13 -15 -29 -28 -36 -28 -7 0
-21 -9 -31 -20 -10 -12 -25 -18 -32 -16 -7 3 -12 0 -10 -6 1 -7 -24 -25 -55
-42 -64 -33 -79 -58 -53 -86 18 -20 54 -15 104 15 l26 16 -27 -23 -27 -23 42
-38 c63 -58 78 -70 125 -106 23 -18 42 -37 42 -42 0 -5 -97 -9 -228 -9 l-229
0 -5 93 c-3 50 -5 332 -4 625 l1 534 40 13 c57 20 101 71 115 136 16 75 -8
140 -68 186 -37 28 -52 33 -98 33 -64 0 -96 -14 -144 -64 -31 -33 -35 -43 -38
-104 -2 -56 1 -74 20 -107 20 -34 68 -77 99 -87 6 -2 8 -114 7 -298 l-3 -295
-32 56 c-31 56 -135 171 -181 201 -21 14 -22 19 -12 62 20 91 -28 178 -115
212 -157 60 -305 -116 -220 -262 48 -82 143 -113 230 -75 l48 21 40 -25 c59
-40 124 -112 168 -187 48 -82 61 -117 24 -65 -32 45 -124 108 -203 137 -87 33
-205 43 -346 32 -195 -17 -256 -48 -256 -132 0 -62 32 -185 66 -252 66 -131
196 -271 322 -345 l66 -38 -242 -3 c-232 -2 -242 -3 -253 -23 -8 -16 -7 -25 7
-40 17 -19 83 -19 3716 -19 l3698 0 12 25 c19 41 -3 55 -86 55 l-71 0 54 30
c231 127 382 349 404 594 6 56 4 60 -25 88 -51 47 -123 63 -288 62 -80 0 -170
-6 -200 -13 -94 -21 -193 -77 -265 -149 l-65 -66 0 397 0 397 26 10 c114 44
168 174 115 279 -54 105 -188 134 -288 63 -67 -47 -91 -156 -54 -238 20 -43
82 -101 119 -110 l22 -6 0 -318 c0 -215 -3 -321 -11 -325 -15 -10 -17 -6 -39
78 -44 174 -169 314 -327 369 -54 18 -89 23 -168 23 -91 0 -106 -3 -165 -31
-36 -17 -78 -43 -93 -58 -26 -24 -28 -30 -22 -74 4 -26 9 -55 11 -64 4 -13
-10 -25 -58 -47 -85 -40 -141 -90 -172 -153 l-26 -52 0 140 0 139 164 146
c178 158 318 303 431 444 247 309 451 709 547 1073 17 64 32 123 34 130 3 9
115 12 521 12 331 0 532 4 556 11 21 5 53 24 72 40 68 60 66 35 63 821 l-3
706 -31 39 c-67 82 -31 77 -647 83 l-548 5 -58 150 c-76 195 -127 308 -200
439 -33 59 -54 107 -48 107 7 1 31 1 54 -1 23 -1 56 1 73 5 26 6 31 11 28 33
l-3 27 -85 -3 c-109 -3 -121 0 -144 40 -31 53 -155 227 -217 303 -235 292
-581 560 -984 765 -335 170 -678 277 -1035 325 -139 19 -527 27 -665 14z
m-947 -524 c-2 -113 -7 -205 -12 -205 -4 0 -5 -11 -2 -25 17 -66 -31 -106 -52
-42 -5 17 -10 24 -11 15 -1 -14 -10 -18 -36 -18 -33 0 -35 -2 -35 -34 0 -28 4
-35 22 -38 26 -3 38 -38 14 -38 -9 0 -17 -8 -17 -17 -1 -10 -3 -25 -4 -33 -1
-8 -3 -31 -4 -50 -2 -33 -3 -34 -12 -11 -5 13 -7 33 -4 45 5 17 4 18 -4 6 -6
-8 -8 -35 -5 -60 3 -25 1 -56 -5 -70 l-10 -25 0 28 c-1 15 -6 27 -12 27 -7 0
-9 -10 -5 -25 4 -16 2 -25 -5 -25 -8 0 -10 14 -6 43 2 23 3 36 0 30 -3 -7 -11
-13 -19 -13 -10 0 -11 -6 -4 -25 5 -14 7 -32 4 -40 -4 -8 -3 -41 1 -73 8 -53
9 -55 18 -30 l11 28 12 -37 c14 -39 10 -58 -7 -33 -8 13 -10 13 -19 0 -8 -12
-12 -13 -19 -2 -7 11 -9 10 -15 -3 -3 -9 -11 -13 -17 -9 -8 4 -7 9 2 15 21 13
3 22 -20 9 -13 -6 -21 -7 -21 -1 0 12 37 24 49 17 15 -9 18 134 4 154 -7 10
-9 20 -6 24 3 3 1 6 -5 6 -7 0 -12 5 -12 11 0 5 4 8 9 5 5 -3 2 13 -6 37 -16
47 -29 66 -19 27 l7 -25 -20 25 c-16 20 -22 22 -32 13 -10 -10 -17 -9 -35 8
-12 11 -37 28 -55 37 -21 10 -35 26 -37 40 -4 27 -23 37 -84 46 -71 11 -117
-1 -124 -31 -4 -15 -27 -38 -58 -59 -28 -18 -64 -43 -80 -56 l-29 -22 6 24 c6
24 5 24 -8 6 -9 -12 -11 -22 -5 -26 6 -4 5 -19 -2 -43 -8 -28 -17 -37 -33 -37
-11 0 -26 -5 -33 -12 -9 -9 -12 -9 -12 3 0 8 5 20 12 27 9 9 9 12 0 12 -18 0
-25 -47 -12 -81 10 -23 10 -36 1 -55 -6 -14 -11 -33 -10 -42 1 -11 4 -8 9 8 5
16 8 19 9 8 1 -9 13 -23 28 -30 15 -7 29 -22 31 -33 3 -10 15 -36 29 -58 13
-21 22 -41 19 -45 -3 -3 2 -14 11 -25 17 -20 17 -20 -2 -13 -15 5 -17 4 -9 -4
9 -9 17 -9 33 -1 17 9 28 8 58 -9 22 -11 29 -19 18 -18 -11 2 -24 8 -28 13 -5
6 -6 2 -3 -8 3 -10 6 -26 6 -35 0 -13 3 -13 16 4 14 18 15 18 8 -6 -6 -21 -5
-23 7 -13 9 7 20 8 29 3 8 -5 18 -6 24 -3 5 3 6 1 2 -6 -4 -6 -12 -8 -18 -5
-7 4 -8 2 -4 -4 5 -9 13 -9 28 -1 11 6 18 7 14 1 -9 -16 46 -12 87 5 33 14 40
15 48 2 7 -12 9 -12 10 1 1 8 1 19 0 23 -1 5 9 6 21 2 22 -6 22 -5 -1 8 l-24
14 29 18 c16 10 41 26 56 36 15 11 33 19 40 18 9 0 9 -2 -1 -6 -27 -11 -70
-56 -64 -67 3 -6 0 -5 -8 2 -15 14 -29 16 -29 3 0 -5 9 -13 20 -16 25 -8 17
-25 -12 -25 -13 0 -18 -5 -15 -13 4 -10 -6 -13 -34 -12 -29 1 -38 -2 -35 -12
3 -7 1 -13 -5 -13 -6 0 -8 -4 -5 -8 2 -4 -11 -9 -30 -10 -37 -3 -84 -18 -84
-27 0 -4 4 -4 9 -1 5 4 17 3 26 0 14 -6 14 -8 -4 -20 -11 -8 -24 -14 -28 -13
-4 1 -15 -1 -23 -4 -8 -4 -42 -8 -75 -10 -33 -3 1 -3 75 -2 91 2 115 0 75 -5
l-60 -7 50 -3 50 -3 -55 -8 c-30 -4 -175 -7 -321 -7 -293 0 -313 -4 -361 -61
-36 -42 -47 -108 -48 -291 -1 -206 -1 -212 10 -205 5 3 12 -4 15 -16 4 -11 16
-30 27 -41 38 -38 82 -48 204 -48 l116 0 59 -57 c33 -32 57 -63 55 -70 -3 -7
1 -10 9 -7 8 3 20 -4 27 -15 14 -23 48 -29 48 -8 0 21 71 102 91 103 10 1 16
-2 14 -6 -2 -4 8 -5 22 -2 26 5 26 5 5 13 -27 10 -29 23 -2 16 11 -3 20 -1 20
4 0 8 -22 13 -42 10 -5 0 -8 3 -8 9 0 5 20 10 44 10 l45 0 -3 -162 c-2 -148
-4 -167 -25 -206 -13 -23 -28 -45 -34 -49 -6 -4 -7 -1 -2 7 5 8 4 11 -3 6 -6
-4 -9 -12 -7 -19 6 -15 -58 -60 -105 -75 -41 -13 -498 -13 -506 -1 -3 5 -15 9
-27 9 -30 0 -102 63 -92 80 5 8 4 11 -3 6 -11 -7 -30 80 -19 90 3 3 68 7 145
10 123 4 141 2 146 -12 4 -9 1 -24 -6 -33 -12 -14 -11 -15 5 -2 16 13 20 13
27 0 6 -9 29 -14 69 -15 33 -1 59 2 56 6 -2 4 4 15 15 25 12 11 20 31 20 51 0
18 7 40 16 48 8 9 11 16 5 16 -6 0 -11 7 -11 15 0 8 5 15 12 15 6 0 8 3 5 6
-4 4 -13 1 -22 -6 -11 -9 -12 -16 -5 -25 8 -9 8 -15 0 -20 -5 -3 -10 -2 -10 4
0 6 -10 19 -22 31 -29 26 -91 27 -128 0 -15 -11 -30 -16 -34 -13 -4 4 -4 0 0
-10 6 -16 -6 -17 -147 -17 -85 -1 -185 -3 -222 -6 l-69 -6 4 125 c1 69 1 121
-3 116 -3 -5 -11 6 -17 25 -12 32 -74 86 -99 86 -15 0 -43 28 -43 43 0 6 6 4
13 -5 14 -19 63 -36 53 -19 -4 6 -15 11 -25 11 -39 0 -32 52 24 192 15 38 31
65 36 62 5 -3 6 1 3 9 -7 20 66 178 79 170 5 -3 8 0 5 8 -3 8 13 48 34 91 30
62 41 76 57 73 12 -2 25 5 36 21 8 13 11 24 5 24 -5 0 -10 -5 -10 -12 0 -9 -3
-9 -11 -1 -13 13 -6 27 58 126 40 59 63 76 63 46 0 -6 -4 -8 -9 -5 -5 3 -16
-5 -25 -18 -14 -22 -14 -24 2 -21 10 1 16 9 14 20 -2 9 1 14 7 11 15 -10 24
13 10 30 -9 11 -8 18 6 34 10 11 21 17 25 15 4 -3 14 3 21 13 13 15 12 16 -3
3 -22 -17 -23 -8 -2 24 9 14 20 22 25 19 5 -3 9 -2 8 3 -4 20 2 27 12 13 9
-13 10 -12 5 3 -7 23 12 47 115 140 19 18 26 24 14 15 -12 -10 -25 -18 -30
-18 -5 0 28 38 74 84 47 47 89 82 94 79 6 -3 7 -1 4 4 -9 14 61 75 75 67 6 -4
8 -3 5 3 -4 6 21 34 54 63 49 43 63 50 71 39 8 -11 9 -11 4 3 -3 11 5 25 24
40 61 49 191 143 198 143 4 0 27 15 51 33 25 18 52 30 61 27 19 -6 55 18 55
37 0 7 8 12 18 12 9 -1 15 1 12 5 -8 14 144 83 168 76 16 -5 18 -4 8 3 -11 8
-2 16 38 36 50 26 71 27 71 4 0 -7 -4 -7 -13 0 -10 8 -20 5 -42 -12 -21 -17
-25 -25 -15 -31 9 -5 11 -4 6 3 -11 18 40 38 57 23 12 -9 14 -7 13 11 -2 24 2
38 10 38 3 0 4 -92 2 -205z m1982 60 c15 -18 6 -61 -16 -69 -24 -9 -54 12 -54
37 0 43 44 63 70 32z m-2334 -40 c-11 -8 -25 -15 -30 -15 -6 0 -2 7 8 15 11 8
25 15 30 15 6 0 2 -7 -8 -15z m792 -251 c4 -25 -22 -49 -43 -40 -15 5 -21 47
-8 60 14 14 48 1 51 -20z m857 -43 l60 -6 -110 -12 c-149 -17 -222 -37 -340
-92 -170 -81 -296 -198 -395 -367 -22 -38 -47 -91 -57 -119 -9 -27 -18 -45
-20 -38 -6 18 55 192 88 250 152 265 461 419 774 384z m-1835 -102 c0 -5 -9
-14 -20 -21 -26 -16 -25 -28 1 -28 11 0 45 -7 75 -16 81 -23 108 -63 113 -167
4 -104 -9 -145 -62 -194 -35 -32 -54 -41 -95 -47 -48 -6 -53 -9 -59 -36 -7
-39 -28 -38 -39 1 -8 27 -17 34 -56 46 -57 16 -84 48 -105 125 -12 43 -21 58
-34 58 -37 0 -35 53 3 65 11 4 29 26 39 50 23 52 67 91 118 105 31 8 40 16 44
39 6 30 26 41 60 33 9 -2 17 -8 17 -13z m483 4 c-9 -7 -22 -13 -27 -12 -6 0
-5 3 3 6 10 4 11 7 1 13 -8 5 -3 7 14 7 24 -2 25 -3 9 -14z m-50 -53 c-3 -11
-7 -20 -9 -20 -2 0 -4 9 -4 20 0 11 4 20 9 20 5 0 7 -9 4 -20z m186 -6 c12
-15 21 -37 21 -49 0 -37 -37 -75 -73 -75 -68 0 -101 77 -52 125 33 34 77 33
104 -1z m2919 5 c77 -19 67 -25 -36 -21 -178 7 -321 -53 -414 -176 -71 -94
-91 -169 -87 -328 l4 -126 -18 42 c-42 95 -29 257 29 371 92 182 322 286 522
238z m-3304 -45 c9 -24 2 -26 -12 -4 -7 11 -8 20 -3 20 5 0 12 -7 15 -16z
m183 -21 c-3 -10 -5 -4 -5 12 0 17 2 24 5 18 2 -7 2 -21 0 -30z m-147 -13 c0
-5 -5 -10 -11 -10 -6 0 -8 -7 -4 -17 4 -13 3 -15 -5 -7 -6 6 -8 18 -4 27 7 18
24 23 24 7z m157 -42 c-3 -7 -5 -2 -5 12 0 14 2 19 5 13 2 -7 2 -19 0 -25z
m-20 -10 c-3 -8 -6 -5 -6 6 -1 11 2 17 5 13 3 -3 4 -12 1 -19z m64 -25 c11
-13 11 -17 1 -20 -6 -3 -10 -9 -6 -14 3 -5 0 -9 -5 -9 -15 0 -14 17 1 26 7 5
5 11 -7 21 -11 7 -14 13 -8 13 6 0 17 -7 24 -17z m3091 -11 c56 -24 148 -112
148 -141 0 -11 -13 -40 -30 -64 -16 -25 -30 -48 -30 -53 0 -4 -31 -64 -69
-133 -38 -69 -75 -145 -82 -168 -7 -24 -16 -43 -21 -43 -4 0 -8 -9 -8 -20 0
-22 -15 -27 -23 -7 -4 9 -8 9 -15 -2 -8 -11 -11 -10 -16 7 -10 29 -85 46 -103
24 -11 -14 -13 -13 -13 4 0 11 -25 42 -60 73 -85 75 -114 133 -114 236 -1 68
3 89 27 137 34 69 100 130 171 158 66 26 170 23 238 -8z m-3042 -42 c-24 -15
-36 -11 -14 4 10 8 21 12 24 10 2 -3 -2 -9 -10 -14z m0 -30 c8 -5 11 -10 5
-10 -5 0 -17 5 -25 10 -8 5 -10 10 -5 10 6 0 17 -5 25 -10z m-153 -32 c-3 -8
-6 -5 -6 6 -1 11 2 17 5 13 3 -3 4 -12 1 -19z m-109 -106 c7 -19 7 -30 2 -27
-6 4 -10 13 -10 21 0 8 -5 12 -11 9 -6 -4 -8 -13 -6 -19 3 -7 -1 -13 -8 -13
-10 0 -11 5 -4 18 5 10 9 28 9 40 0 29 14 15 28 -29z m23 2 c5 -15 8 -29 5
-31 -2 -2 -8 10 -14 26 -13 38 -5 41 9 5z m-511 -69 c7 -8 8 -15 2 -15 -5 0
-15 7 -22 15 -7 8 -8 15 -2 15 5 0 15 -7 22 -15z m430 -9 c0 -3 -4 -8 -10 -11
-5 -3 -10 -1 -10 4 0 6 5 11 10 11 6 0 10 -2 10 -4z m2100 -336 c6 -102 8
-250 5 -330 -10 -230 -40 -345 -127 -482 -95 -148 -243 -252 -378 -264 -124
-12 -260 40 -368 141 -141 130 -209 280 -232 509 -11 107 -11 389 0 399 3 3
39 -4 80 -16 63 -17 104 -21 255 -21 166 -1 188 1 277 26 152 43 296 122 409
227 l54 49 8 -26 c4 -15 12 -110 17 -212z m-3180 161 c0 -4 -7 -8 -15 -8 -16
0 -20 9 -9 20 8 8 24 -1 24 -12z m1361 -198 c21 -23 21 -25 4 -17 -31 14
-1094 17 -1127 3 -15 -6 -31 -24 -37 -41 -14 -38 -14 -331 -2 -376 13 -44 -7
-39 -31 8 -16 30 -17 58 -13 214 4 179 4 179 31 207 l28 29 561 0 562 0 24
-27z m2826 -10 c-3 -10 -5 -4 -5 12 0 17 2 24 5 18 2 -7 2 -21 0 -30z m-3217
-78 l0 -25 -332 2 c-301 3 -333 5 -336 20 -2 9 5 18 15 21 10 2 161 5 336 6
l317 1 0 -25z m1030 -120 c0 -52 5 -140 11 -195 6 -56 9 -103 7 -105 -11 -11
-79 19 -118 52 -81 69 -100 159 -55 250 20 39 36 56 68 72 23 12 52 21 65 21
21 0 22 -3 22 -95z m1346 66 c18 -11 45 -36 60 -57 25 -33 29 -46 28 -103 0
-101 -48 -163 -153 -199 l-34 -12 6 68 c4 37 7 124 7 195 l0 127 28 0 c15 0
41 -9 58 -19z m-2151 -52 l0 -24 -175 2 c-96 1 -298 2 -447 3 -266 0 -273 1
-273 20 0 19 8 20 438 22 240 2 442 3 447 2 6 0 10 -12 10 -25z m3187 -34 c10
-4 13 -16 10 -35 l-4 -30 -108 0 c-107 0 -108 0 -114 25 -4 14 -4 30 -1 35 6
10 193 14 217 5z m-3232 -80 l0 -25 -425 0 -425 0 0 25 0 25 425 0 425 0 0
-25z m3307 -72 c7 -19 -56 -81 -94 -94 -40 -13 -104 -6 -138 17 -20 13 -55 69
-55 88 0 13 283 2 287 -11z m-3579 -30 l3 -23 -290 0 c-281 0 -291 1 -291 19
0 11 8 22 18 24 9 3 139 4 287 3 l270 -1 3 -22z m5536 -93 l318 0 34 -34 c22
-22 34 -44 34 -62 0 -29 -10 -28 -14 3 -3 20 -56 33 -56 13 0 -7 -7 -5 -16 4
-35 35 -94 9 -94 -41 0 -61 66 -84 97 -35 10 15 20 29 24 32 3 3 9 12 12 20 4
12 6 11 6 -3 1 -10 6 -15 11 -12 6 3 10 2 10 -4 0 -15 -20 -24 -21 -9 0 9 -2
9 -5 1 -3 -6 2 -25 10 -41 l15 -29 -30 2 c-32 3 -28 -10 6 -18 11 -3 -447 -5
-1017 -6 l-1038 -1 0 65 c0 36 7 81 15 101 28 67 5 66 730 59 358 -3 793 -5
969 -5z m-6690 -20 c40 -15 53 -54 55 -162 l2 -98 -622 0 -621 0 4 100 c3 88
6 102 28 125 13 14 38 29 54 34 43 13 1068 14 1100 1z m1284 -300 c3 -258 -4
-340 -28 -355 -5 -3 -7 11 -5 32 4 35 4 36 -4 8 -6 -22 -9 -25 -11 -10 -1 12
-4 15 -7 7 -3 -7 3 -24 12 -39 9 -14 12 -22 6 -19 -6 4 -14 0 -17 -8 -3 -9
-10 -13 -15 -10 -5 3 -5 -5 0 -19 8 -20 5 -28 -14 -45 -28 -25 -78 -58 -82
-55 -2 1 -10 0 -19 -4 -9 -3 -78 -3 -153 0 -151 6 -192 -3 -247 -58 -14 -14
-28 -25 -30 -23 -5 6 40 54 56 60 9 3 10 7 4 11 -6 3 -26 -9 -44 -28 -25 -26
-31 -38 -23 -46 13 -13 -3 -59 -20 -59 -5 0 -7 -7 -3 -15 4 -10 -1 -15 -17
-16 -21 -1 -21 -1 3 -9 15 -5 -27 -8 -107 -8 -161 -1 -206 -13 -242 -62 -15
-20 -32 -35 -39 -32 -6 2 -12 -1 -12 -7 0 -6 -4 -11 -10 -11 -5 0 -10 8 -10
19 0 21 -36 35 -44 17 -2 -6 -6 5 -7 24 -2 26 -4 19 -9 -25 -4 -33 -7 121 -8
343 -2 365 -1 402 14 402 14 0 14 -3 4 -15 -13 -16 -9 -129 5 -143 10 -10 25
20 26 53 0 17 4 39 9 50 7 16 9 11 9 -21 1 -22 8 -49 17 -60 15 -19 16 -19 9
1 -4 11 -9 29 -12 40 -4 20 -4 20 8 0 7 -10 15 -32 18 -48 3 -15 9 -27 13 -25
10 5 58 -44 53 -53 -3 -4 0 -11 6 -15 8 -4 9 -3 5 4 -10 16 -1 15 42 -6 39
-20 153 -28 352 -26 66 1 81 -1 50 -6 -39 -5 -33 -7 45 -11 50 -2 97 -1 105 3
11 6 10 7 -5 6 -60 -4 -74 5 -19 13 64 8 133 37 171 71 12 11 26 17 32 14 5
-4 13 -1 17 5 4 8 3 9 -4 5 -18 -11 -15 -1 13 40 30 44 55 123 55 173 0 20 4
31 8 24 4 -6 6 38 5 98 -1 73 1 109 9 109 7 0 6 5 -2 15 -11 13 -6 15 36 15
l49 0 3 -270z m5792 160 c0 -11 -4 -20 -10 -20 -5 0 -10 9 -10 20 0 11 5 20
10 20 6 0 10 -9 10 -20z m-6385 -140 c8 -12 -16 -50 -32 -50 -8 0 -13 13 -13
30 0 23 5 30 19 30 11 0 22 -4 26 -10z m3370 0 c6 -10 -15 -50 -28 -50 -14 0
-19 30 -7 45 14 17 26 19 35 5z m3013 -2 c-4 -10 -220 -14 -1026 -16 l-1022
-2 -2 -528 c-3 -633 -3 -649 12 -668 7 -8 11 -17 8 -20 -3 -3 -17 9 -32 26
l-26 32 0 594 0 594 1046 0 c832 0 1045 -3 1042 -12z m-5318 -58 c11 -11 20
-31 20 -44 0 -36 -37 -76 -70 -76 -31 0 -70 39 -70 70 0 10 9 29 21 44 25 32
70 35 99 6z m-2904 -400 c0 -217 4 -408 8 -423 9 -37 -7 -27 -28 17 -14 30
-16 85 -16 421 0 363 1 386 18 383 16 -3 17 -30 18 -398z m1354 392 c0 -5 -7
-9 -15 -9 -8 0 -15 4 -15 9 0 4 7 8 15 8 8 0 15 -4 15 -8z m-285 -44 c4 -3 2
-14 -4 -25 -6 -10 -24 -65 -40 -122 l-28 -105 -28 42 c-16 24 -34 42 -41 40
-7 -2 -87 -76 -178 -165 -90 -90 -168 -163 -172 -163 -5 0 -39 30 -76 67 l-68
68 -143 -143 c-78 -78 -147 -142 -153 -142 -6 0 -19 9 -28 19 -18 19 -13 25
144 190 151 159 180 185 180 162 0 -5 31 -36 69 -70 l68 -61 162 160 c88 88
161 164 161 168 0 4 -16 17 -35 29 -19 13 -39 32 -46 44 l-11 21 131 -4 c71
-2 133 -6 136 -10z m5400 -62 c21 -49 10 -87 -32 -115 -31 -20 -39 -21 -60
-10 -80 43 -52 159 39 159 35 0 41 -4 53 -34z m195 19 c10 -12 10 -19 2 -27
-14 -14 -16 -32 -4 -24 5 3 9 -1 9 -9 0 -11 -4 -12 -14 -4 -10 9 -13 8 -13 -5
0 -9 -4 -16 -8 -16 -5 0 -7 -13 -4 -30 3 -22 0 -30 -11 -30 -24 0 -87 40 -87
55 0 22 20 68 37 87 20 22 76 23 93 3z m-5343 -27 c-3 -8 -6 -5 -6 6 -1 11 2
17 5 13 3 -3 4 -12 1 -19z m2478 -53 c115 -66 230 -91 338 -74 67 11 186 62
242 105 l35 26 0 -100 0 -101 -42 -34 c-61 -49 -184 -130 -246 -161 -39 -20
-62 -25 -82 -21 -36 8 -164 84 -270 161 l-80 57 0 105 0 104 23 -16 c12 -8 49
-31 82 -51z m3755 0 l0 -25 -359 0 c-319 0 -360 2 -365 16 -3 9 -4 20 0 25 3
5 160 9 365 9 l359 0 0 -25z m-982 -121 c43 -30 20 -83 -41 -98 -21 -5 -33 -1
-52 18 -31 31 -31 41 0 71 28 29 61 32 93 9z m-2953 -43 c18 -30 264 -200 353
-245 l54 -27 -34 -39 c-18 -21 -62 -71 -97 -112 -107 -124 -162 -187 -181
-210 l-18 -23 -16 40 c-22 51 -186 543 -186 556 0 5 6 9 14 9 7 0 31 13 52 29
43 33 50 35 59 22z m995 -69 c0 -7 -40 -135 -90 -285 -49 -149 -90 -278 -90
-285 0 -24 -18 -9 -87 74 -37 45 -107 126 -155 181 -81 93 -101 123 -80 123
35 0 367 225 379 257 6 16 123 -45 123 -65z m3165 47 l0 -24 -472 -3 c-313 -1
-474 1 -474 8 -1 5 -2 16 -3 23 -1 9 101 13 464 17 256 3 470 5 475 4 6 0 10
-12 10 -25z m-5392 -4 c-3 -9 -8 -14 -10 -11 -3 3 -2 9 2 15 9 16 15 13 8 -4z
m4068 -71 c7 -9 14 -23 15 -32 2 -9 5 -26 8 -38 7 -27 -43 -74 -79 -74 -34 0
-78 56 -70 89 15 61 93 95 126 55z m210 9 c7 -42 5 -53 -10 -51 -13 2 -16 -7
-16 -46 0 -27 -5 -51 -11 -53 -6 -2 -31 8 -57 22 l-47 27 20 38 c11 21 30 46
42 54 23 16 77 22 79 9z m-3237 -19 c9 -23 7 -34 -5 -34 -24 0 -467 -182 -534
-219 -146 -81 -282 -238 -342 -398 -32 -81 -77 -297 -114 -538 -24 -159 -34
-191 -62 -206 -19 -11 -19 -9 -12 47 14 123 57 384 84 519 31 157 70 262 131
359 57 90 199 222 289 270 65 34 519 213 547 215 7 1 15 -6 18 -15z m-1012
-36 c7 -19 -3 -58 -15 -58 -6 0 -19 7 -29 17 -17 15 -17 17 -2 35 20 21 40 24
46 6z m4235 -30 c-3 -7 -5 -2 -5 12 0 14 2 19 5 13 2 -7 2 -19 0 -25z m1383
-40 l0 -31 -112 6 c-62 4 -335 7 -605 7 l-493 0 0 25 0 25 605 0 605 0 0 -32z
m-6165 -84 c-8 -16 -15 -23 -15 -16 0 13 22 53 27 48 2 -2 -3 -16 -12 -32z
m4708 2 c28 -21 19 -68 -16 -84 -37 -18 -72 -8 -94 24 -17 26 -16 27 11 50 30
27 72 31 99 10z m-2499 -73 c4 -11 0 -20 -11 -27 -74 -40 -124 -137 -104 -199
10 -30 10 -30 -4 -12 -29 37 -36 85 -18 122 16 35 106 133 122 133 5 0 12 -8
15 -17z m3476 -8 l0 -25 -365 0 -365 0 0 25 0 25 365 0 365 0 0 -25z m-5571
-54 c22 -21 31 -38 31 -61 0 -21 -4 -29 -12 -24 -8 5 -9 0 -4 -17 4 -13 10
-137 13 -276 7 -280 2 -308 -57 -338 -33 -17 -54 -20 -46 -6 4 5 -4 7 -16 4
-19 -4 -21 -3 -8 7 13 10 12 11 -3 6 -10 -3 -37 0 -61 6 l-44 12 -7 94 c-4 55
-3 98 2 103 5 5 23 11 40 12 17 1 31 6 30 11 -1 5 4 11 12 14 8 2 11 0 7 -6
-3 -6 -2 -13 3 -16 5 -4 8 2 6 11 -3 24 26 74 39 66 5 -4 7 0 4 8 -3 8 -2 38
2 67 3 28 4 52 0 52 -9 0 -30 62 -24 72 3 5 2 7 -3 6 -4 -2 -24 9 -43 23 -19
14 -63 33 -97 42 -66 18 -92 21 -58 8 17 -7 16 -9 -13 -15 -18 -4 -30 -12 -27
-17 4 -5 -2 -6 -11 -2 -10 3 -15 2 -13 -3 3 -5 -7 -21 -23 -35 -16 -16 -29
-22 -31 -15 -7 20 -11 -96 -8 -205 1 -26 31 -65 31 -40 0 6 -4 11 -10 11 -5 0
-10 7 -10 16 0 12 10 8 37 -16 20 -18 49 -37 65 -42 l28 -10 0 -118 0 -117
-50 -7 c-51 -7 -100 0 -100 14 0 5 6 11 13 13 7 4 6 6 -5 6 -9 1 -19 -5 -22
-11 -8 -20 -82 66 -90 104 -9 46 5 560 16 581 5 10 24 27 41 37 29 18 52 20
238 20 l207 0 31 -29z m4470 -3 c12 -12 24 -36 27 -54 5 -26 1 -38 -20 -61
-14 -15 -26 -23 -26 -18 0 6 -4 4 -9 -4 -14 -21 -68 4 -87 40 -12 25 -13 33 0
63 24 57 79 74 115 34z m207 14 c14 -9 14 -42 0 -42 -6 0 -11 -19 -12 -42 0
-23 -5 -43 -12 -46 -7 -2 -12 -10 -12 -18 0 -8 -6 -11 -17 -7 -22 7 -73 54
-73 66 0 20 45 70 74 83 37 16 38 16 52 6z m-2773 -202 l27 -50 -14 -83 c-7
-45 -22 -146 -32 -225 -10 -78 -21 -137 -25 -130 -4 7 -34 93 -68 191 l-60
178 67 84 c37 46 69 84 72 84 3 0 17 -22 33 -49z m475 -65 l42 -49 -24 -75
c-37 -116 -83 -272 -91 -309 -4 -18 -9 -32 -10 -30 -2 2 -9 46 -15 98 -17 150
-50 371 -55 380 -3 5 6 25 20 46 14 20 25 42 25 48 1 11 19 -8 108 -109z
m-2568 29 c17 -15 27 -30 22 -33 -5 -3 -12 -19 -16 -35 -10 -41 -61 -89 -86
-81 -27 9 -25 -9 3 -23 22 -11 22 -11 -4 -11 -34 -1 -89 58 -89 95 0 59 53
113 112 114 15 0 41 -12 58 -26z m2705 -75 c-42 -165 -203 -690 -216 -703 -21
-22 -17 7 16 105 18 57 68 214 109 349 95 311 99 321 103 316 2 -2 -3 -32 -12
-67z m3465 41 l0 -30 -765 0 -765 0 0 30 0 30 765 0 765 0 0 -30z m-3970 -80
c0 -38 -36 -320 -56 -435 -21 -126 -38 -136 -30 -18 5 88 52 445 61 471 8 23
25 12 25 -18z m-3095 -286 c6 -13 9 -115 7 -277 l-3 -257 -364 0 c-201 0 -365
-3 -365 -6 0 -12 24 -51 49 -78 l26 -29 -30 7 c-16 4 -41 18 -55 32 l-25 24 0
286 0 286 24 19 c22 18 41 19 374 17 344 -3 352 -3 362 -24z m918 -86 c41 6
33 -3 -10 -11 -27 -5 -33 -3 -32 11 0 9 3 12 5 6 2 -6 19 -8 37 -6z m67 -18
c13 -8 13 -10 -2 -10 -9 0 -20 5 -23 10 -8 13 5 13 25 0z m4503 -131 c33 -18
37 -30 21 -68 -19 -45 -51 -80 -87 -96 -27 -11 -28 -13 -12 -29 22 -22 13 -31
-15 -16 -29 15 -60 69 -60 103 0 79 88 140 153 106z m-708 -239 c31 -19 73
-60 63 -60 -3 0 -19 7 -34 15 -25 13 -227 15 -1608 15 l-1578 0 -37 -21 c-70
-39 -66 24 -69 -906 l-2 -843 -25 0 -25 0 0 850 c0 943 -4 883 67 937 l36 28
286 5 c157 3 873 4 1591 2 1265 -3 1305 -4 1335 -22z m-3385 -1065 c0 -483 -3
-735 -10 -735 -7 0 -10 216 -10 628 0 556 6 842 17 842 1 0 3 -331 3 -735z
m4770 550 c36 -18 58 -53 33 -51 -10 0 -17 -8 -18 -22 -3 -34 -36 -74 -81 -97
-44 -22 -55 -34 -48 -50 3 -5 -8 6 -25 25 -54 61 -34 156 40 193 42 21 62 21
99 2z m-5902 -121 c27 -18 42 -53 42 -101 0 -51 -53 -103 -107 -103 -31 0 -46
7 -72 34 -95 98 23 244 137 170z m2987 -93 c212 -98 161 -410 -70 -429 -167
-14 -296 180 -219 329 16 33 78 87 118 105 44 19 124 17 171 -5z m-3442 -331
c42 -37 53 -80 31 -123 -32 -64 -84 -83 -144 -52 -40 21 -60 53 -60 99 0 31 7
45 36 72 47 45 90 46 137 4z m5909 -47 c87 -41 155 -106 203 -194 l40 -74 3
-277 c3 -263 -1 -304 -24 -266 -4 7 -3 8 4 4 9 -5 11 9 10 51 -2 57 -2 57 -5
11 -3 -34 -8 -48 -19 -48 -9 0 -12 -5 -8 -12 4 -7 -19 3 -52 21 -240 134 -470
428 -530 679 -15 64 -12 76 30 102 49 30 102 40 198 36 71 -3 98 -9 150 -33z
m-412 -232 c5 -11 15 -32 20 -48 9 -26 9 -26 -5 -9 -13 17 -18 17 -47 6 -55
-22 -149 -72 -144 -77 2 -3 14 1 26 7 12 6 24 9 28 6 3 -3 -1 -6 -9 -6 -11 0
-11 -2 1 -10 20 -13 33 -12 24 2 -4 7 -3 8 5 4 6 -4 9 -11 6 -16 -6 -9 -66 -7
-83 3 -5 4 -19 -8 -31 -26 -12 -18 -21 -25 -21 -16 0 8 5 20 12 27 7 7 8 12 4
12 -12 0 47 77 78 101 32 25 96 58 113 59 7 0 17 -9 23 -19z m-5499 -135 c137
-29 233 -103 295 -224 33 -66 37 -84 42 -170 l5 -96 -31 36 c-17 19 -47 46
-67 59 -19 13 -33 30 -30 37 3 7 0 10 -6 7 -13 -9 -41 14 -32 28 3 5 2 8 -3 4
-12 -7 -86 38 -77 47 4 4 0 4 -10 0 -10 -3 -17 -1 -17 5 0 6 -7 11 -16 11 -9
0 -12 5 -8 12 4 6 3 8 -3 5 -6 -4 -34 4 -63 17 -28 13 -48 26 -43 28 4 3 2 3
-5 1 -8 -2 -35 4 -60 13 -79 27 -151 44 -187 44 -19 0 -37 5 -40 10 -3 6 -20
10 -37 10 -30 0 -30 1 -14 19 14 15 23 17 48 11 19 -6 49 -5 81 3 44 10 48 12
26 18 -22 7 -23 7 -2 8 36 2 34 16 -3 17 -23 0 -30 -2 -22 -9 9 -6 4 -7 -14
-4 -16 2 -28 0 -28 -4 0 -5 12 -9 28 -10 26 -1 25 -1 -7 -11 -28 -8 -36 -6
-43 6 -13 23 -41 20 -72 -9 l-26 -24 0 33 c0 19 6 39 14 45 44 37 303 53 427
27z m7068 -11 c40 -23 53 -46 22 -38 -12 3 -27 0 -35 -6 -10 -9 -15 -9 -18 0
-2 6 -10 -2 -17 -18 -7 -15 -17 -35 -20 -43 -4 -8 -37 -22 -72 -31 -218 -56
-389 -147 -520 -278 l-57 -56 -6 76 c-4 42 -4 89 0 105 22 94 111 199 215 254
89 47 162 60 329 57 124 -2 150 -5 179 -22z m-1487 -65 c-3 -19 0 -30 8 -30 7
0 9 8 5 23 -6 21 -6 21 14 -3 11 -14 21 -32 20 -40 0 -11 -2 -10 -10 4 -9 15
-13 16 -20 5 -12 -19 -11 -32 1 -24 6 3 10 3 10 -2 0 -4 -23 -28 -51 -52 -40
-35 -53 -41 -60 -30 -5 8 -9 19 -9 26 0 20 62 84 75 79 10 -3 12 6 8 35 -3 22
-1 39 4 39 5 0 8 -13 5 -30z m-285 -2 c-3 -8 -6 -5 -6 6 -1 11 2 17 5 13 3 -3
4 -12 1 -19z m-5650 6 c-3 -3 -12 -4 -19 -1 -8 3 -5 6 6 6 11 1 17 -2 13 -5z
m5629 -21 c-7 -7 -26 7 -26 19 0 6 6 6 15 -2 9 -7 13 -15 11 -17z m-36 -50
c-11 -17 -11 -17 -6 0 3 10 6 24 7 30 0 9 2 9 5 0 3 -7 0 -20 -6 -30z m1033
-265 c2 -159 0 -288 -4 -288 -24 0 -29 54 -29 299 0 142 3 267 6 276 17 44 23
-23 27 -287z m-1025 102 c14 0 15 2 2 10 -21 13 -10 17 30 9 22 -4 27 -7 13
-8 -13 0 -23 -5 -23 -11 0 -5 -11 -10 -25 -10 -25 0 -25 1 -23 78 l2 77 3 -72
c3 -61 7 -73 21 -73z m1819 71 c-12 -27 -26 -46 -31 -43 -5 3 -6 0 -2 -6 8
-13 -28 -81 -56 -104 -11 -10 -16 -18 -12 -18 5 0 -23 -31 -61 -68 -98 -95
-236 -175 -358 -208 -61 -16 -170 -19 -147 -4 8 5 11 10 6 10 -5 0 -3 7 4 15
7 9 18 14 25 11 10 -3 13 24 5 44 -1 3 -1 14 0 24 1 15 -9 11 -49 -23 -28 -24
-51 -40 -51 -37 0 4 10 26 21 49 31 61 173 194 269 251 90 55 267 119 376 136
38 6 70 13 73 16 11 11 8 1 -12 -45z m-7292 7 c44 -11 119 -37 167 -58 98 -43
211 -116 203 -130 -3 -6 0 -7 7 -5 7 3 36 -17 63 -45 42 -42 48 -52 35 -61
-13 -9 -12 -10 2 -5 12 3 23 -3 33 -18 14 -20 13 -29 -3 -82 -18 -59 -18 -59
-60 -62 -51 -4 -137 17 -215 53 -50 23 -56 29 -45 43 12 14 10 14 -12 2 -24
-13 -24 -12 -10 5 14 17 14 18 -7 6 -15 -7 -23 -8 -23 -1 0 5 -7 10 -16 10 -8
0 -13 4 -10 9 3 5 -5 12 -18 15 -40 10 -188 169 -222 239 -9 20 -10 26 -2 17
10 -11 38 -15 118 -16 99 -2 110 5 30 20 -26 4 -30 4 -15 -4 14 -6 1 -7 -40
-3 -43 4 -66 12 -80 28 -12 12 -25 20 -31 18 -5 -2 -15 10 -21 27 l-11 30 51
-6 c29 -3 88 -15 132 -26z m5472 -30 c-3 -8 -6 -5 -6 6 -1 11 2 17 5 13 3 -3
4 -12 1 -19z m227 -10 c-3 -4 -20 -8 -37 -8 -23 0 -28 -3 -18 -9 12 -8 10 -11
-10 -15 -63 -13 -87 -12 -84 3 1 11 15 17 41 19 21 2 43 7 47 11 10 10 67 10
61 -1z m-2484 -155 c0 -47 19 -101 38 -105 9 -2 158 -3 330 -3 357 0 342 -4
342 87 l0 48 835 0 835 0 0 -40 0 -40 -719 0 -719 0 -26 -45 c-15 -24 -35 -49
-46 -55 -12 -6 -195 -10 -507 -10 -544 0 -511 -4 -559 71 l-24 39 -693 -2
-692 -3 3 -40 c5 -53 29 -93 81 -132 l43 -33 -30 0 c-37 0 -90 35 -119 79 -20
29 -23 47 -23 122 l0 89 825 0 825 0 0 -27z m640 -3 l0 -30 -285 0 -285 0 0
30 0 30 285 0 285 0 0 -30z m2797 -167 c-4 -3 -2 -12 3 -18 12 -14 -23 -50
-39 -40 -10 5 25 65 38 65 2 0 1 -3 -2 -7z"/>
<path d="M3870 7380 c-9 -6 -10 -10 -3 -10 6 0 15 5 18 10 8 12 4 12 -15 0z"/>
<path d="M3703 7328 c-13 -6 -23 -15 -23 -20 0 -5 -4 -7 -8 -4 -4 2 -14 0 -22
-6 -13 -8 -12 -9 1 -5 9 3 22 1 28 -4 6 -5 9 -6 6 -3 -8 12 16 34 36 34 11 0
19 5 19 10 0 12 -8 12 -37 -2z"/>
<path d="M3710 7299 c0 -5 5 -7 10 -4 6 3 10 8 10 11 0 2 -4 4 -10 4 -5 0 -10
-5 -10 -11z"/>
<path d="M3570 7220 c0 -5 5 -10 11 -10 5 0 7 5 4 10 -3 6 -8 10 -11 10 -2 0
-4 -4 -4 -10z"/>
<path d="M3489 7203 c-12 -16 -12 -17 2 -6 9 7 20 9 24 5 5 -4 5 -1 1 6 -9 16
-11 15 -27 -5z"/>
<path d="M3419 7163 c-1 -5 -1 -12 0 -17 1 -5 -5 -6 -14 -3 -21 9 -19 0 3 -12
15 -8 18 -6 18 15 0 22 -5 33 -7 17z"/>
<path d="M3465 7140 c-3 -5 -1 -10 4 -10 6 0 11 5 11 10 0 6 -2 10 -4 10 -3 0
-8 -4 -11 -10z"/>
<path d="M3344 7103 c4 -8 2 -13 -6 -13 -10 0 -9 -3 2 -10 8 -5 11 -12 7 -16
-3 -4 -13 -2 -20 4 -10 9 -14 8 -14 -3 0 -8 2 -13 5 -10 3 2 12 0 22 -5 14 -8
17 -5 16 20 -1 16 -5 32 -10 37 -5 4 -6 3 -2 -4z"/>
<path d="M3285 7061 c-3 -5 -2 -12 3 -15 5 -3 9 1 9 9 0 17 -3 19 -12 6z"/>
<path d="M3255 7040 c-3 -5 -1 -10 4 -10 6 0 11 5 11 10 0 6 -2 10 -4 10 -3 0
-8 -4 -11 -10z"/>
<path d="M3169 6963 c-13 -16 -12 -17 4 -4 9 7 17 15 17 17 0 8 -8 3 -21 -13z"/>
<path d="M3185 6944 c-14 -22 -15 -28 -4 -36 11 -7 11 -11 1 -15 -6 -2 -10 -9
-6 -14 3 -5 -2 -9 -10 -9 -9 0 -16 -4 -16 -9 0 -5 13 -4 30 2 16 6 26 14 22
17 -4 3 -7 16 -6 30 2 41 6 46 14 20 7 -21 8 -21 9 -5 1 39 -15 48 -34 19z"/>
<path d="M3230 6949 c0 -5 5 -7 10 -4 6 3 10 8 10 11 0 2 -4 4 -10 4 -5 0 -10
-5 -10 -11z"/>
<path d="M3475 6950 c-19 -8 -19 -9 3 -9 12 -1 22 4 22 9 0 6 -1 10 -2 9 -2 0
-12 -4 -23 -9z"/>
<path d="M3426 6941 c-15 -6 -11 -9 21 -19 48 -14 63 -15 63 -3 0 5 -6 9 -12
8 -37 -1 -58 4 -53 13 7 11 7 11 -19 1z"/>
<path d="M3135 6930 c-3 -5 -1 -10 4 -10 6 0 11 5 11 10 0 6 -2 10 -4 10 -3 0
-8 -4 -11 -10z"/>
<path d="M3240 6904 c0 -8 5 -12 10 -9 6 3 10 10 10 16 0 5 -4 9 -10 9 -5 0
-10 -7 -10 -16z"/>
<path d="M3145 6900 c-3 -5 -1 -10 4 -10 6 0 11 5 11 10 0 6 -2 10 -4 10 -3 0
-8 -4 -11 -10z"/>
<path d="M3764 6845 c0 -19 3 -35 7 -35 12 0 20 35 13 54 -10 27 -20 18 -20
-19z"/>
<path d="M3800 6869 c0 -5 5 -7 10 -4 6 3 10 8 10 11 0 2 -4 4 -10 4 -5 0 -10
-5 -10 -11z"/>
<path d="M3480 6866 c0 -2 7 -7 16 -10 8 -3 12 -2 9 4 -6 10 -25 14 -25 6z"/>
<path d="M3530 6860 c-8 -5 -12 -11 -10 -14 3 -2 14 2 24 10 22 15 10 19 -14
4z"/>
<path d="M3691 6863 c-1 -6 -4 -20 -7 -30 -5 -17 -5 -17 6 0 6 10 9 23 6 30
-3 9 -5 9 -5 0z"/>
<path d="M3170 6839 c-22 -18 -22 -19 -3 -10 12 6 25 16 28 21 9 15 3 12 -25
-11z"/>
<path d="M3570 6851 c0 -5 -6 -11 -12 -13 -9 -2 -5 -11 10 -25 16 -16 22 -18
22 -8 0 8 -4 15 -10 15 -5 0 -10 5 -10 11 0 6 7 9 14 6 10 -4 13 -1 9 9 -6 16
-23 19 -23 5z"/>
<path d="M2985 6750 c-4 -7 -17 -10 -30 -8 -12 3 -31 -1 -41 -9 -10 -7 -13
-13 -8 -13 6 0 14 4 20 9 10 11 37 -5 47 -29 4 -9 5 -5 3 8 -3 13 2 26 12 31
9 5 14 12 10 16 -3 3 -9 1 -13 -5z"/>
<path d="M3046 6723 c-6 -14 -5 -15 5 -6 7 7 10 15 7 18 -3 3 -9 -2 -12 -12z"/>
<path d="M3048 6693 c7 -3 16 -2 19 1 4 3 -2 6 -13 5 -11 0 -14 -3 -6 -6z"/>
<path d="M2980 6651 c0 -6 4 -13 10 -16 6 -3 7 1 4 9 -7 18 -14 21 -14 7z"/>
<path d="M2770 6575 c-7 -9 -11 -17 -9 -20 3 -2 10 5 17 15 14 24 10 26 -8 5z"/>
<path d="M2972 6530 c0 -14 2 -19 5 -12 2 6 2 18 0 25 -3 6 -5 1 -5 -13z"/>
<path d="M2740 6530 c0 -5 5 -10 10 -10 6 0 10 5 10 10 0 6 -4 10 -10 10 -5 0
-10 -4 -10 -10z"/>
<path d="M2746 6493 c-5 -12 -3 -13 7 -5 10 9 17 8 25 0 9 -9 12 -9 12 3 0 20
-37 22 -44 2z"/>
<path d="M2700 6460 c6 -11 13 -20 16 -20 2 0 0 9 -6 20 -6 11 -13 20 -16 20
-2 0 0 -9 6 -20z"/>
<path d="M2697 6417 c-3 -8 1 -14 8 -14 7 0 11 6 8 14 -3 7 -6 13 -8 13 -2 0
-5 -6 -8 -13z"/>
<path d="M3087 6423 c-11 -11 -8 -20 7 -20 8 0 12 6 9 14 -6 15 -7 15 -16 6z"/>
<path d="M2546 6271 c-8 -13 4 -42 15 -35 5 3 9 10 9 15 0 6 -5 7 -12 3 -8 -5
-9 -2 -5 9 7 18 2 23 -7 8z"/>
<path d="M3240 6250 c-9 -6 -10 -10 -3 -10 6 0 15 5 18 10 8 12 4 12 -15 0z"/>
<path d="M2540 6181 c0 -6 4 -13 10 -16 6 -3 7 1 4 9 -7 18 -14 21 -14 7z"/>
<path d="M2748 6133 c7 -3 16 -2 19 1 4 3 -2 6 -13 5 -11 0 -14 -3 -6 -6z"/>
<path d="M2843 6103 c9 -2 23 -2 30 0 6 3 -1 5 -18 5 -16 0 -22 -2 -12 -5z"/>
<path d="M3012 6103 c48 -2 129 -2 180 0 51 1 12 3 -87 3 -99 0 -141 -2 -93
-3z"/>
<path d="M2431 6064 c0 -11 3 -14 6 -6 3 7 2 16 -1 19 -3 4 -6 -2 -5 -13z"/>
<path d="M2461 6054 c0 -11 3 -14 6 -6 3 7 2 16 -1 19 -3 4 -6 -2 -5 -13z"/>
<path d="M2356 5865 c-9 -26 -7 -32 5 -12 6 10 9 21 6 23 -2 3 -7 -2 -11 -11z"/>
<path d="M2240 5580 c0 -5 5 -10 11 -10 5 0 7 5 4 10 -3 6 -8 10 -11 10 -2 0
-4 -4 -4 -10z"/>
<path d="M2350 5481 c0 -6 4 -13 10 -16 6 -3 7 1 4 9 -7 18 -14 21 -14 7z"/>
<path d="M2605 5459 c-4 -6 -5 -12 -2 -15 2 -3 7 2 10 11 7 17 1 20 -8 4z"/>
<path d="M2828 5413 c18 -2 45 -2 60 0 15 2 0 4 -33 4 -33 0 -45 -2 -27 -4z"/>
<path d="M2935 5410 c11 -5 27 -9 35 -9 13 -1 13 0 0 9 -8 5 -24 9 -35 9 l-20
0 20 -9z"/>
<path d="M3323 5315 c0 -38 2 -53 4 -32 2 20 2 52 0 70 -2 17 -4 1 -4 -38z"/>
<path d="M3235 5353 c-4 -12 -14 -23 -24 -25 -9 -2 -12 -6 -6 -10 16 -10 47
18 42 39 -4 16 -6 16 -12 -4z"/>
<path d="M3246 5305 c-11 -8 -15 -15 -9 -15 6 0 16 7 23 15 16 19 11 19 -14 0z"/>
<path d="M3179 5293 c-1 -5 -1 -16 0 -25 1 -10 -2 -18 -8 -18 -6 0 -8 -7 -5
-15 11 -27 21 -16 22 25 1 22 0 40 -3 40 -3 0 -6 -3 -6 -7z"/>
<path d="M2804 5257 c1 -25 19 -32 34 -14 9 11 7 16 -12 25 -20 9 -23 8 -22
-11z m26 -7 c0 -5 -4 -10 -10 -10 -5 0 -10 5 -10 10 0 6 5 10 10 10 6 0 10 -4
10 -10z"/>
<path d="M3323 5160 c0 -25 2 -35 4 -22 2 12 2 32 0 45 -2 12 -4 2 -4 -23z"/>
<path d="M3020 5160 c0 -11 2 -20 4 -20 2 0 6 9 9 20 3 11 1 20 -4 20 -5 0 -9
-9 -9 -20z"/>
<path d="M2532 5100 c0 -14 2 -19 5 -12 2 6 2 18 0 25 -3 6 -5 1 -5 -13z"/>
<path d="M2770 5110 c20 -13 43 -13 35 0 -3 6 -16 10 -28 10 -18 0 -19 -2 -7
-10z"/>
<path d="M2997 5098 c-10 -11 -17 -22 -14 -24 2 -2 12 5 22 16 23 26 16 33 -8
8z"/>
<path d="M3310 5095 c0 -8 2 -15 4 -15 2 0 6 7 10 15 3 8 1 15 -4 15 -6 0 -10
-7 -10 -15z"/>
<path d="M2551 5074 c0 -11 3 -14 6 -6 3 7 2 16 -1 19 -3 4 -6 -2 -5 -13z"/>
<path d="M3015 5070 c3 -5 8 -10 11 -10 2 0 4 5 4 10 0 6 -5 10 -11 10 -5 0
-7 -4 -4 -10z"/>
<path d="M2806 5052 c-2 -4 4 -8 14 -8 10 0 16 4 14 8 -3 4 -9 8 -14 8 -5 0
-11 -4 -14 -8z"/>
<path d="M3307 6770 c-44 -13 -95 -57 -118 -102 -43 -85 -8 -190 81 -242 106
-62 260 36 260 166 0 125 -109 212 -223 178z"/>
<path d="M7316 5419 c-42 -33 -35 -99 15 -124 42 -22 67 -18 100 14 55 55 23
131 -56 131 -18 0 -44 -9 -59 -21z m73 -28 c17 -11 5 -51 -15 -51 -17 0 -28
24 -20 45 6 17 15 19 35 6z"/>
<path d="M7544 5417 c-31 -27 -35 -64 -10 -102 14 -20 24 -25 61 -25 51 0 76
25 77 81 2 63 -75 91 -128 46z m73 -37 c-1 -10 -4 -17 -8 -14 -4 2 -10 -5 -14
-16 -8 -26 -25 -16 -25 14 0 27 3 31 29 33 13 1 19 -4 18 -17z"/>
<path d="M7763 5422 c-32 -25 -37 -61 -14 -99 27 -43 61 -51 105 -24 41 26 52
60 32 100 -24 45 -82 56 -123 23z m73 -23 c4 -7 0 -9 -14 -5 -21 7 -38 -17
-25 -36 3 -7 1 -8 -5 -4 -15 9 -15 29 0 44 15 15 35 15 44 1z"/>
<path d="M8846 5398 c-21 -30 -20 -61 2 -81 25 -22 48 -21 72 3 25 25 26 62 2
83 -26 23 -58 21 -76 -5z"/>
<path d="M8997 5402 c-35 -38 -9 -102 41 -102 45 0 72 89 33 110 -29 15 -56
12 -74 -8z"/>
<path d="M9247 5324 c-11 -11 -8 -26 3 -19 6 3 10 1 10 -6 0 -7 3 -10 6 -6 3
3 2 13 -3 22 -5 8 -12 12 -16 9z"/>
<path d="M2268 5383 c5 -21 7 -23 10 -9 2 10 0 22 -6 28 -6 6 -7 0 -4 -19z"/>
<path d="M1218 5377 c-39 -23 -48 -35 -48 -64 0 -39 41 -75 84 -75 74 0 114
76 66 127 -30 32 -63 36 -102 12z m57 -28 c11 -16 -4 -59 -20 -59 -19 0 -29
38 -15 55 15 18 26 19 35 4z"/>
<path d="M1422 5367 c-18 -18 -32 -43 -32 -56 0 -29 52 -81 80 -81 79 0 120
93 64 145 -37 35 -73 32 -112 -8z m71 -57 c-3 -11 -9 -20 -14 -20 -11 0 -11 3
-3 24 9 23 23 20 17 -4z"/>
<path d="M1865 5385 c-59 -31 -71 -75 -32 -120 30 -35 88 -37 122 -5 44 42 35
98 -20 125 -40 18 -34 18 -70 0z m51 -37 c4 -6 0 -16 -8 -22 -8 -6 -13 -17
-10 -25 3 -8 0 -11 -6 -7 -8 5 -10 48 -3 64 3 6 21 1 27 -10z"/>
<path d="M2242 5386 c7 -8 15 -12 17 -11 5 6 -10 25 -20 25 -5 0 -4 -6 3 -14z"/>
<path d="M1637 5362 c-24 -27 -21 -74 6 -100 32 -30 71 -28 96 4 25 32 27 61
5 92 -20 28 -83 31 -107 4z"/>
<path d="M3481 5318 c1 -55 5 -50 11 15 2 20 0 37 -4 37 -4 0 -7 -24 -7 -52z"/>
<path d="M3384 5012 c-8 -19 -12 -37 -9 -40 2 -3 8 6 13 19 5 13 12 31 15 39
3 8 6 2 6 -15 2 -48 17 -58 16 -11 0 53 -20 57 -41 8z"/>
<path d="M3431 5004 c0 -11 3 -14 6 -6 3 7 2 16 -1 19 -3 4 -6 -2 -5 -13z"/>
<path d="M3289 4906 c-12 -13 -26 -23 -33 -21 -6 3 -18 -6 -27 -18 -16 -22
-15 -23 8 -34 21 -10 23 -9 18 7 -3 11 0 20 10 24 9 3 15 0 15 -9 0 -8 5 -15
10 -15 18 0 23 29 9 47 -12 15 -12 16 3 10 12 -4 15 -2 11 9 -3 7 -1 14 5 14
15 0 22 -26 9 -39 -8 -8 -8 -11 1 -11 7 0 12 5 12 11 0 5 6 7 13 3 7 -5 6 2
-4 16 -22 34 -35 35 -60 6z m11 -37 c0 -6 -4 -7 -10 -4 -5 3 -10 11 -10 16 0
6 5 7 10 4 6 -3 10 -11 10 -16z"/>
<path d="M3180 4850 c0 -5 5 -10 10 -10 6 0 10 5 10 10 0 6 -4 10 -10 10 -5 0
-10 -4 -10 -10z"/>
<path d="M2778 4833 c7 -3 16 -2 19 1 4 3 -2 6 -13 5 -11 0 -14 -3 -6 -6z"/>
<path d="M2925 4830 c51 -8 162 -13 154 -6 -2 2 -49 6 -104 9 -69 3 -85 3 -50
-3z"/>
<path d="M3165 4823 c11 -3 27 -10 35 -17 13 -10 13 -9 1 7 -7 9 -23 16 -35
16 -20 -1 -20 -2 -1 -6z"/>
<path d="M2638 4813 c6 -2 18 -2 25 0 6 3 1 5 -13 5 -14 0 -19 -2 -12 -5z"/>
<path d="M3100 4810 c-21 -7 -21 -8 -5 -9 11 0 27 4 35 9 18 11 5 11 -30 0z"/>
<path d="M3158 4803 c7 -3 16 -2 19 1 4 3 -2 6 -13 5 -11 0 -14 -3 -6 -6z"/>
<path d="M3366 4762 c-3 -6 -1 -14 5 -17 15 -10 25 3 12 16 -7 7 -13 7 -17 1z"/>
<path d="M3420 4720 c-23 -7 -23 -8 -3 -9 12 -1 25 4 28 9 3 6 5 10 3 9 -2 -1
-14 -5 -28 -9z"/>
<path d="M2960 4710 c0 -5 10 -10 23 -10 18 0 19 2 7 10 -19 13 -30 13 -30 0z"/>
<path d="M3065 4702 c-45 -12 -54 -17 -40 -22 11 -4 30 -3 43 1 13 5 38 10 55
10 18 1 24 3 14 6 -9 2 -15 9 -12 14 4 5 5 8 3 8 -2 -1 -30 -9 -63 -17z"/>
<path d="M3290 4710 c-8 -5 -12 -11 -9 -14 3 -3 14 1 25 9 21 16 8 20 -16 5z"/>
<path d="M3363 4705 c0 -7 7 -11 16 -8 11 3 10 0 -3 -11 -24 -19 -7 -22 18 -3
17 12 16 14 -6 24 -19 9 -25 8 -25 -2z"/>
<path d="M3324 4681 c-5 -5 -18 -11 -29 -14 -15 -4 -14 -5 7 -6 15 0 30 4 33
10 9 14 1 21 -11 10z"/>
<path d="M2881 4534 c0 -11 3 -14 6 -6 3 7 2 16 -1 19 -3 4 -6 -2 -5 -13z"/>
<path d="M2575 4460 c-13 -5 -14 -9 -5 -9 8 0 24 4 35 9 13 5 14 9 5 9 -8 0
-24 -4 -35 -9z"/>
<path d="M2625 4329 c-26 -13 -48 -46 -39 -60 9 -16 34 10 27 28 -5 12 -2 15
10 10 10 -4 16 -2 14 6 -1 7 7 11 18 9 22 -2 61 -2 175 1 41 1 90 -1 108 -4
17 -4 32 -3 32 1 0 6 33 7 73 1 4 -1 7 -9 8 -18 0 -16 1 -15 8 1 7 19 8 18 15
-5 7 -21 9 -21 13 -5 3 10 0 23 -7 30 -14 14 -426 19 -455 5z m-15 -43 c0 -3
-4 -8 -10 -11 -5 -3 -10 -1 -10 4 0 6 5 11 10 11 6 0 10 -2 10 -4z"/>
<path d="M2624 4269 c-3 -6 -2 -15 3 -20 5 -5 9 -1 9 11 0 23 -2 24 -12 9z"/>
<path d="M2575 4165 c-4 -42 -5 -79 -2 -81 2 -3 8 29 12 71 4 42 5 79 2 81 -2
3 -8 -29 -12 -71z"/>
<path d="M2727 4229 c7 -7 15 -10 18 -7 3 3 -2 9 -12 12 -14 6 -15 5 -6 -5z"/>
<path d="M2910 4233 c5 -2 8 -9 4 -14 -3 -5 0 -9 6 -9 15 0 7 23 -8 26 -7 1
-8 0 -2 -3z"/>
<path d="M2678 4223 c6 -2 18 -2 25 0 6 3 1 5 -13 5 -14 0 -19 -2 -12 -5z"/>
<path d="M2945 4190 c3 -5 8 -10 11 -10 2 0 4 5 4 10 0 6 -5 10 -11 10 -5 0
-7 -4 -4 -10z"/>
<path d="M2992 4140 c0 -14 2 -19 5 -12 2 6 2 18 0 25 -3 6 -5 1 -5 -13z"/>
<path d="M2576 4018 c-8 -70 -8 -98 2 -98 4 0 8 34 9 75 2 41 1 75 -1 75 -2 0
-6 -24 -10 -52z"/>
<path d="M3012 3950 c0 -19 2 -27 5 -17 2 9 2 25 0 35 -3 9 -5 1 -5 -18z"/>
<path d="M2572 3870 c0 -19 2 -27 5 -17 2 9 2 25 0 35 -3 9 -5 1 -5 -18z"/>
<path d="M2655 3870 c3 -5 8 -10 11 -10 2 0 4 5 4 10 0 6 -5 10 -11 10 -5 0
-7 -4 -4 -10z"/>
<path d="M2900 3850 c-8 -5 -10 -10 -5 -10 6 0 17 5 25 10 8 5 11 10 5 10 -5
0 -17 -5 -25 -10z"/>
<path d="M2872 3747 c-2 -70 0 -77 13 -63 16 16 21 76 6 76 -6 0 -12 15 -14
33 -2 17 -5 -3 -5 -46z"/>
<path d="M3054 3669 c-3 -6 -19 -9 -35 -7 -15 3 -26 1 -23 -4 9 -13 51 -9 64
7 7 8 10 15 7 15 -3 0 -9 -5 -13 -11z"/>
<path d="M2923 3663 c9 -2 23 -2 30 0 6 3 -1 5 -18 5 -16 0 -22 -2 -12 -5z"/>
<path d="M7721 4274 c0 -11 3 -14 6 -6 3 7 2 16 -1 19 -3 4 -6 -2 -5 -13z"/>
<path d="M7820 2036 c0 -2 8 -10 18 -17 15 -13 16 -12 3 4 -13 16 -21 21 -21
13z"/>
<path d="M7864 1949 c-12 -20 12 -31 27 -12 13 17 13 17 -5 3 -18 -14 -19 -13
-13 3 7 19 2 23 -9 6z"/>
<path d="M1710 1720 c0 -12 47 -13 53 -2 3 4 -8 8 -24 9 -16 1 -29 -2 -29 -7z"/>
<path d="M1795 1711 l20 -10 -20 -2 c-11 -1 -29 -2 -40 -1 -17 2 -18 0 -4 -8
11 -6 31 -5 60 4 24 8 37 15 29 15 -8 1 -26 4 -40 6 -22 5 -22 4 -5 -4z"/>
<path d="M1648 1703 c6 -2 18 -2 25 0 6 3 1 5 -13 5 -14 0 -19 -2 -12 -5z"/>
<path d="M1588 1693 c7 -3 16 -2 19 1 4 3 -2 6 -13 5 -11 0 -14 -3 -6 -6z"/>
<path d="M1884 1685 c11 -8 26 -15 34 -15 7 0 10 -5 6 -12 -5 -7 -3 -8 5 -3
15 9 7 17 -34 33 -28 11 -28 11 -11 -3z"/>
<path d="M1945 1651 c-7 -12 11 -24 24 -17 4 3 16 -3 26 -14 10 -11 24 -20 32
-20 8 0 11 -5 7 -12 -4 -7 -3 -8 5 -4 9 6 9 11 0 22 -6 8 -14 12 -16 10 -3 -2
-13 4 -24 15 -11 11 -25 16 -35 12 -12 -4 -15 -3 -10 5 4 7 5 12 2 12 -3 0 -7
-4 -11 -9z"/>
<path d="M1558 1643 c7 -3 16 -2 19 1 4 3 -2 6 -13 5 -11 0 -14 -3 -6 -6z"/>
<path d="M2035 1550 c-4 -12 -11 -17 -18 -14 -7 4 -8 3 -4 -1 15 -18 32 -12
33 11 2 29 -3 31 -11 4z"/>
<path d="M2065 1390 c-3 -5 -1 -10 4 -10 6 0 11 5 11 10 0 6 -2 10 -4 10 -3 0
-8 -4 -11 -10z"/>
<path d="M2101 1344 c0 -11 3 -14 6 -6 3 7 2 16 -1 19 -3 4 -6 -2 -5 -13z"/>
<path d="M7320 1601 c0 -6 -7 -11 -15 -11 -8 0 -15 -4 -15 -10 0 -14 11 -12
33 4 12 9 14 16 8 21 -6 3 -11 1 -11 -4z"/>
<path d="M1485 1500 c11 -5 29 -8 40 -8 16 0 15 2 -5 8 -34 11 -60 11 -35 0z"/>
<path d="M1585 1450 c-4 -6 3 -10 14 -10 25 0 27 6 6 13 -8 4 -17 2 -20 -3z"/>
<path d="M1678 1453 c7 -3 16 -2 19 1 4 3 -2 6 -13 5 -11 0 -14 -3 -6 -6z"/>
<path d="M1460 1441 c0 -5 7 -14 15 -21 11 -9 15 -9 15 -1 0 7 5 9 12 5 7 -4
8 -3 4 4 -4 6 -14 8 -23 5 -11 -4 -14 -3 -9 5 4 7 2 12 -3 12 -6 0 -11 -4 -11
-9z"/>
<path d="M1808 1408 c5 -5 16 -8 23 -6 8 3 3 7 -10 11 -17 4 -21 3 -13 -5z"/>
<path d="M1850 1397 c0 -2 6 -10 14 -16 11 -9 16 -9 22 1 4 7 4 10 -1 6 -4 -4
-14 -3 -22 3 -7 6 -13 9 -13 6z"/>
<path d="M1783 1380 c-34 -14 -28 -21 7 -9 17 6 30 13 30 15 0 6 -12 4 -37 -6z"/>
<path d="M1945 1310 c10 -11 20 -20 23 -20 3 0 -3 9 -13 20 -10 11 -20 20 -23
20 -3 0 3 -9 13 -20z"/>
<path d="M1625 1260 c3 -5 11 -10 16 -10 6 0 7 5 4 10 -3 6 -11 10 -16 10 -6
0 -7 -4 -4 -10z"/>
<path d="M1662 1244 c-7 -8 -8 -14 -3 -14 10 0 25 19 20 25 -2 1 -10 -3 -17
-11z"/>
<path d="M2000 1253 c0 -5 12 -20 28 -34 l27 -24 -25 30 c-14 17 -26 32 -27
34 -2 2 -3 0 -3 -6z"/>
<path d="M2007 1199 c4 -13 8 -18 11 -10 2 7 -1 18 -6 23 -8 8 -9 4 -5 -13z"/>
<path d="M1768 1163 c7 -3 16 -2 19 1 4 3 -2 6 -13 5 -11 0 -14 -3 -6 -6z"/>
<path d="M1815 1150 c-16 -7 -17 -9 -3 -9 9 -1 20 4 23 9 7 11 7 11 -20 0z"/>
<path d="M7138 1483 c12 -2 32 -2 45 0 12 2 2 4 -23 4 -25 0 -35 -2 -22 -4z"/>
<path d="M8190 1145 c-7 -8 -9 -15 -6 -15 4 0 14 7 22 15 9 8 11 15 6 15 -5 0
-15 -7 -22 -15z"/>
<path d="M2900 7632 c-39 -19 -70 -71 -70 -118 0 -69 86 -137 152 -121 43 11
87 55 98 98 14 51 -9 103 -59 136 -41 28 -74 29 -121 5z m110 -84 c13 -25 13
-31 0 -55 -20 -35 -77 -45 -97 -17 -16 22 -17 58 -2 85 16 31 79 23 99 -13z"/>
<path d="M7249 7617 c-60 -41 -76 -105 -39 -165 63 -103 233 -41 217 79 -13
95 -101 138 -178 86z m5 -32 c-28 -22 -40 -18 -13 4 13 11 26 17 28 15 3 -2
-4 -11 -15 -19z m103 -7 c50 -47 15 -138 -53 -138 -75 0 -89 110 -19 148 30
17 46 14 72 -10z"/>
<path d="M8662 6618 c-36 -36 11 -98 60 -79 33 13 42 38 23 67 -17 26 -62 33
-83 12z"/>
<path d="M2250 6510 c-39 -39 -20 -123 30 -130 59 -8 100 23 100 75 0 46 -29
75 -75 75 -22 0 -43 -8 -55 -20z"/>
<path d="M7902 6508 c-17 -17 -15 -53 3 -68 34 -28 93 32 65 65 -15 18 -52 19
-68 3z"/>
<path d="M8044 6506 c-12 -31 0 -61 27 -64 33 -4 53 20 45 53 -5 20 -13 25
-37 25 -16 0 -32 -6 -35 -14z"/>
<path d="M8886 6494 c-9 -8 -16 -23 -16 -33 0 -21 30 -51 52 -51 19 0 48 32
48 53 0 21 -27 47 -50 47 -10 0 -26 -7 -34 -16z"/>
<path d="M8257 6482 c-22 -24 -21 -45 1 -65 24 -22 45 -21 65 1 21 23 22 46 1
66 -21 21 -47 20 -67 -2z"/>
<path d="M9082 6478 c-7 -7 -12 -21 -12 -33 0 -29 19 -45 52 -45 25 0 48 23
48 49 0 33 -63 54 -88 29z"/>
<path d="M1693 6450 c-96 -20 -178 -83 -220 -168 -24 -49 -28 -69 -28 -142 0
-62 5 -95 18 -121 29 -59 81 -112 138 -144 49 -27 62 -30 149 -30 113 0 150
15 221 92 81 86 103 208 60 323 -50 133 -203 218 -338 190z m159 -91 c45 -23
95 -82 100 -120 3 -15 1 -26 -3 -24 -4 3 -10 -17 -13 -43 -15 -107 -33 -146
-90 -200 -51 -49 -58 -52 -106 -52 -132 0 -240 113 -228 240 17 172 190 274
340 199z"/>
<path d="M8649 6440 c-65 -11 -118 -41 -171 -98 -65 -69 -81 -110 -82 -207 -1
-68 3 -88 27 -137 30 -62 83 -115 149 -150 36 -19 58 -23 133 -23 78 0 97 4
140 27 162 85 217 295 120 448 -67 105 -192 160 -316 140z m134 -83 c35 -15
101 -67 93 -74 -2 -2 -21 4 -43 15 -88 45 -182 35 -254 -26 -47 -40 -75 -98
-85 -175 l-7 -52 -15 35 c-26 63 5 170 66 228 61 57 172 79 245 49z"/>
<path d="M8054 6275 c-12 -49 36 -73 70 -36 28 30 13 61 -29 61 -29 0 -36 -4
-41 -25z"/>
<path d="M9086 6264 c-19 -50 7 -84 54 -69 25 8 37 50 20 70 -17 20 -66 19
-74 -1z"/>
<path d="M8250 6200 c-21 -40 12 -80 54 -64 22 8 31 50 16 69 -18 22 -57 19
-70 -5z"/>
<path d="M1291 6094 c-26 -19 -27 -45 -3 -67 37 -33 76 -11 70 39 -4 34 -37
48 -67 28z"/>
<path d="M9092 6068 c-29 -29 7 -82 49 -71 24 7 36 48 19 68 -15 18 -51 20
-68 3z"/>
<path d="M1181 5954 c-24 -31 -26 -43 -10 -78 14 -31 61 -49 94 -36 44 17 59
76 29 118 -23 33 -86 31 -113 -4z"/>
<path d="M9087 5862 c-25 -27 -21 -60 7 -74 32 -14 53 -5 68 28 11 23 10 28
-11 45 -29 24 -43 24 -64 1z"/>
<path d="M8257 5842 c-23 -25 -22 -69 2 -82 31 -16 59 -12 75 12 21 30 20 44
-4 68 -25 25 -52 26 -73 2z"/>
<path d="M8667 5742 c-24 -27 -21 -59 8 -78 23 -15 27 -15 49 -1 33 22 39 54
15 78 -24 24 -51 24 -72 1z"/>
<path d="M8601 3528 c-149 -42 -243 -216 -196 -360 37 -115 134 -188 262 -196
67 -4 79 -2 138 27 185 91 217 323 65 465 -71 66 -175 91 -269 64z m167 -87
c20 -10 46 -28 56 -40 l19 -21 -34 17 c-24 13 -57 18 -111 18 -70 0 -79 -2
-115 -31 -54 -43 -83 -104 -83 -179 -1 -57 -1 -59 -15 -35 -32 56 -12 174 38
229 54 59 172 79 245 42z"/>
<path d="M8266 3494 c-19 -18 -21 -55 -4 -72 18 -18 53 -15 71 6 22 24 21 38
-3 62 -24 24 -43 25 -64 4z"/>
<path d="M9071 3471 c-37 -37 -21 -81 29 -81 31 0 50 17 50 45 -1 47 -47 68
-79 36z"/>
<path d="M8242 3258 c-7 -7 -12 -21 -12 -33 0 -29 19 -45 52 -45 36 0 56 36
39 69 -13 23 -59 29 -79 9z"/>
<path d="M9062 3258 c-7 -7 -12 -21 -12 -33 0 -28 19 -45 50 -45 31 0 50 17
50 45 0 28 -19 45 -50 45 -14 0 -31 -5 -38 -12z"/>
<path d="M9078 3069 c-26 -14 -23 -65 3 -79 39 -21 86 29 61 66 -11 17 -45 24
-64 13z"/>
<path d="M8038 3045 c-9 -21 -8 -28 7 -45 31 -34 75 -20 75 25 0 48 -62 63
-82 20z"/>
<path d="M8196 3054 c-21 -20 -20 -37 2 -57 26 -24 49 -21 67 7 32 48 -28 91
-69 50z"/>
<path d="M9222 3058 c-27 -27 -6 -68 34 -68 28 0 46 23 42 52 -2 17 -10 24
-33 26 -17 2 -36 -3 -43 -10z"/>
<path d="M8389 2896 c-31 -15 -39 -74 -13 -93 27 -20 72 -16 84 6 31 59 -14
115 -71 87z"/>
<path d="M1425 2770 c-87 -57 -85 -188 5 -248 66 -45 175 -11 206 64 44 104
-23 204 -136 204 -28 0 -56 -8 -75 -20z m108 -52 c32 -17 46 -39 47 -72 0 -66
-79 -99 -127 -54 -38 36 -27 109 20 128 30 12 35 12 60 -2z"/>
<path d="M8725 2771 c-52 -31 -68 -58 -72 -114 -7 -93 59 -162 148 -154 110 9
172 121 121 216 -35 65 -134 92 -197 52z m122 -73 c31 -29 30 -72 -2 -103 -69
-70 -170 30 -103 102 28 30 74 30 105 1z"/>
<path d="M7792 2498 c-22 -22 -15 -76 13 -94 52 -34 115 29 81 81 -18 28 -72
35 -94 13z"/>
<path d="M2442 2484 c-52 -36 -4 -122 54 -96 13 7 29 23 36 37 10 22 8 29 -12
50 -27 29 -47 31 -78 9z"/>
<path d="M8435 2271 c-135 -61 -148 -235 -25 -318 69 -48 149 -42 212 15 69
62 87 145 49 220 -23 46 -46 67 -94 87 -48 20 -93 19 -142 -4z m144 -80 c26
-25 31 -36 31 -76 0 -40 -5 -52 -34 -81 -58 -58 -141 -42 -172 32 -45 109 90
205 175 125z"/>
<path d="M2723 2123 c9 -2 25 -2 35 0 9 3 1 5 -18 5 -19 0 -27 -2 -17 -5z"/>
<path d="M2848 2123 c7 -3 16 -2 19 1 4 3 -2 6 -13 5 -11 0 -14 -3 -6 -6z"/>
<path d="M2660 2111 c-8 -6 -18 -7 -22 -5 -4 3 -5 -1 -3 -8 3 -8 18 -14 33
-15 23 -1 24 -1 7 7 -16 7 -17 9 -3 9 20 1 35 21 16 21 -7 0 -20 -4 -28 -9z"/>
<path d="M2710 2100 c-8 -5 -10 -10 -5 -10 6 0 17 5 25 10 8 5 11 10 5 10 -5
0 -17 -5 -25 -10z"/>
<path d="M2580 2084 c-16 -10 -18 -13 -5 -8 11 4 28 7 37 8 9 0 14 4 12 8 -7
11 -15 10 -44 -8z"/>
<path d="M2514 2043 c-10 -7 -13 -13 -7 -13 7 0 15 5 18 10 4 6 10 8 15 5 5
-3 11 -2 14 3 8 13 -19 10 -40 -5z"/>
<path d="M2540 2020 c-9 -6 -10 -10 -3 -10 6 0 15 5 18 10 8 12 4 12 -15 0z"/>
<path d="M2468 2003 c-8 -10 -25 -34 -38 -53 l-23 -35 30 30 c16 17 28 32 27
35 -4 9 24 29 32 22 4 -4 4 -1 0 6 -9 16 -10 15 -28 -5z"/>
<path d="M2449 1933 c-13 -16 -12 -17 4 -4 9 7 17 15 17 17 0 8 -8 3 -21 -13z"/>
<path d="M2351 1584 c0 -11 3 -14 6 -6 3 7 2 16 -1 19 -3 4 -6 -2 -5 -13z"/>
<path d="M2351 1534 c0 -11 3 -14 6 -6 3 7 2 16 -1 19 -3 4 -6 -2 -5 -13z"/>
<path d="M2347 1178 c-4 -13 0 -29 10 -40 15 -16 14 -17 -16 -13 -17 2 -33 -1
-36 -6 -4 -5 16 -9 45 -9 l50 0 -2 45 c-2 25 -7 45 -12 45 -5 0 -6 -16 -3 -35
5 -31 4 -33 -12 -23 -12 7 -16 19 -13 34 6 30 -4 31 -11 2z"/>
<path d="M2338 1093 c17 -2 47 -2 65 0 17 2 3 4 -33 4 -36 0 -50 -2 -32 -4z"/>
<path d="M8786 1058 c-14 -20 -14 -24 1 -40 14 -16 34 -18 168 -18 165 0 190
7 183 51 l-3 24 -167 3 c-162 2 -167 2 -182 -20z"/>
</g>
</svg>
